# Blender v3.2.2 OBJ File: ''
# www.blender.org
mtllib test_new.mtl
o wire_straight
v -1.199980 1.199996 25.000000
v -1.399980 1.199996 25.000000
v -1.199980 0.999996 25.000000
v -1.399980 0.999996 25.000000
v -1.399980 1.199996 24.799999
v -1.399980 1.199996 25.000000
v -1.199980 1.199996 24.799999
v -1.199980 1.199996 25.000000
v -1.399980 1.199996 25.000000
v -1.399980 1.199996 24.799999
v -1.399980 0.999996 25.000000
v -1.399980 0.999996 24.799999
v -1.399980 1.199996 24.799999
v -1.199980 1.199996 24.799999
v -1.399980 0.999996 24.799999
v -1.199980 0.999996 24.799999
v -1.199980 0.999996 24.799999
v -1.199980 0.999996 25.000000
v -1.399980 0.999996 24.799999
v -1.399980 0.999996 25.000000
v -1.199980 1.199996 24.799999
v -1.199980 1.199996 25.000000
v -1.199980 0.999996 24.799999
v -1.199980 0.999996 25.000000
v -1.199950 1.199996 25.400000
v -1.399950 1.199996 25.400000
v -1.199950 0.999996 25.400000
v -1.399950 0.999996 25.400000
v -1.399950 1.199996 25.200001
v -1.399950 1.199996 25.400000
v -1.199950 1.199996 25.200001
v -1.199950 1.199996 25.400000
v -1.399950 1.199996 25.400000
v -1.399950 1.199996 25.200001
v -1.399950 0.999996 25.400000
v -1.399950 0.999996 25.200001
v -1.399950 1.199996 25.200001
v -1.199950 1.199996 25.200001
v -1.399950 0.999996 25.200001
v -1.199950 0.999996 25.200001
v -1.199950 0.999996 25.200001
v -1.199950 0.999996 25.400000
v -1.399950 0.999996 25.200001
v -1.399950 0.999996 25.400000
v -1.199950 1.199996 25.200001
v -1.199950 1.199996 25.400000
v -1.199950 0.999996 25.200001
v -1.199950 0.999996 25.400000
v -6.399980 1.199996 25.400000
v -6.599980 1.199996 25.400000
v -6.399980 0.999996 25.400000
v -6.599980 0.999996 25.400000
v -6.599980 1.199996 25.200001
v -6.599980 1.199996 25.400000
v -6.399980 1.199996 25.200001
v -6.399980 1.199996 25.400000
v -6.599980 1.199996 25.400000
v -6.599980 1.199996 25.200001
v -6.599980 0.999996 25.400000
v -6.599980 0.999996 25.200001
v -6.599980 1.199996 25.200001
v -6.399980 1.199996 25.200001
v -6.599980 0.999996 25.200001
v -6.399980 0.999996 25.200001
v -6.399980 0.999996 25.200001
v -6.399980 0.999996 25.400000
v -6.599980 0.999996 25.200001
v -6.599980 0.999996 25.400000
v -6.399980 1.199996 25.200001
v -6.399980 1.199996 25.400000
v -6.399980 0.999996 25.200001
v -6.399980 0.999996 25.400000
v -6.400010 1.199996 25.000000
v -6.600010 1.199996 25.000000
v -6.400010 0.999996 25.000000
v -6.600010 0.999996 25.000000
v -6.600010 1.199996 24.799999
v -6.600010 1.199996 25.000000
v -6.400010 1.199996 24.799999
v -6.400010 1.199996 25.000000
v -6.600010 1.199996 25.000000
v -6.600010 1.199996 24.799999
v -6.600010 0.999996 25.000000
v -6.600010 0.999996 24.799999
v -6.600010 1.199996 24.799999
v -6.400010 1.199996 24.799999
v -6.600010 0.999996 24.799999
v -6.400010 0.999996 24.799999
v -6.400010 0.999996 24.799999
v -6.400010 0.999996 25.000000
v -6.600010 0.999996 24.799999
v -6.600010 0.999996 25.000000
v -6.400010 1.199996 24.799999
v -6.400010 1.199996 25.000000
v -6.400010 0.999996 24.799999
v -6.400010 0.999996 25.000000
v -6.399970 1.499996 25.400000
v -6.399970 1.499996 25.400000
v -6.399970 0.999996 25.799999
v -6.399970 0.999996 25.400000
v -6.399970 1.499996 25.400000
v -1.399970 1.499996 25.400000
v -6.399970 0.999996 25.400000
v -1.399970 0.999996 25.400000
v -1.399970 1.499996 25.400000
v -1.399970 1.499996 25.400000
v -1.399970 0.999996 25.400000
v -1.399970 0.999996 25.799999
v -1.399970 0.999996 25.799999
v -6.399970 0.999996 25.799999
v -1.399970 0.999996 25.400000
v -6.399970 0.999996 25.400000
v -1.399970 1.499996 25.400000
v -6.399970 1.499996 25.400000
v -1.399970 0.999996 25.799999
v -6.399970 0.999996 25.799999
v -6.399980 1.499996 25.400000
v -6.399980 1.499996 24.799999
v -6.399980 0.999996 25.400000
v -6.399980 0.999996 24.799999
v -1.399980 1.499996 24.799999
v -6.399980 1.499996 24.799999
v -1.399980 1.499996 25.400000
v -6.399980 1.499996 25.400000
v -6.399980 1.499996 24.799999
v -1.399980 1.499996 24.799999
v -6.399980 0.999996 24.799999
v -1.399980 0.999996 24.799999
v -1.399980 1.499996 24.799999
v -1.399980 1.499996 25.400000
v -1.399980 0.999996 24.799999
v -1.399980 0.999996 25.400000
v -1.399980 0.999996 25.400000
v -6.399980 0.999996 25.400000
v -1.399980 0.999996 24.799999
v -6.399980 0.999996 24.799999
v -1.399980 1.499996 25.400000
v -6.399980 1.499996 25.400000
v -1.399980 0.999996 25.400000
v -6.399980 0.999996 25.400000
v -1.399960 1.499996 24.799999
v -1.399960 1.499996 24.799999
v -1.399960 0.999996 24.400000
v -1.399960 0.999996 24.799999
v -1.399960 1.499996 24.799999
v -6.399960 1.499996 24.799999
v -1.399960 0.999996 24.799999
v -6.399960 0.999996 24.799999
v -6.399960 1.499996 24.799999
v -6.399960 1.499996 24.799999
v -6.399960 0.999996 24.799999
v -6.399960 0.999996 24.400000
v -6.399960 0.999996 24.400000
v -1.399960 0.999996 24.400000
v -6.399960 0.999996 24.799999
v -1.399960 0.999996 24.799999
v -6.399960 1.499996 24.799999
v -1.399960 1.499996 24.799999
v -6.399960 0.999996 24.400000
v -1.399960 0.999996 24.400000
v -6.400000 0.999996 27.600000
v -6.400000 0.999996 22.600000
v -6.400000 -0.000004 27.600000
v -6.400000 -0.000004 22.600000
v -1.400000 0.999996 22.600000
v -6.400000 0.999996 22.600000
v -1.400000 0.999996 27.600000
v -6.400000 0.999996 27.600000
v -6.400000 0.999996 22.600000
v -1.400000 0.999996 22.600000
v -6.400000 -0.000004 22.600000
v -1.400000 -0.000004 22.600000
v -1.400000 0.999996 22.600000
v -1.400000 0.999996 27.600000
v -1.400000 -0.000004 22.600000
v -1.400000 -0.000004 27.600000
v -1.400000 -0.000004 27.600000
v -6.400000 -0.000004 27.600000
v -1.400000 -0.000004 22.600000
v -6.400000 -0.000004 22.600000
v -1.400000 0.999996 27.600000
v -6.400000 0.999996 27.600000
v -1.400000 -0.000004 27.600000
v -6.400000 -0.000004 27.600000
vt 0.619678 1.214170
vt 0.359678 1.214170
vt 0.619678 0.954168
vt 0.359678 0.954168
vt 0.619678 1.214170
vt 0.359678 1.214170
vt 0.619678 0.954168
vt 0.359678 0.954168
vt 0.619678 1.214170
vt 0.359678 1.214170
vt 0.619678 0.954168
vt 0.359678 0.954168
vt 0.619678 1.214170
vt 0.359678 1.214170
vt 0.619678 0.954168
vt 0.359678 0.954168
vt 0.619678 1.214170
vt 0.359678 1.214170
vt 0.619678 0.954168
vt 0.359678 0.954168
vt 0.619678 1.214170
vt 0.359678 1.214170
vt 0.619678 0.954168
vt 0.359678 0.954168
vt 0.497958 1.305490
vt 0.237958 1.305490
vt 0.497958 1.045490
vt 0.237958 1.045490
vt 0.497958 1.305490
vt 0.237958 1.305490
vt 0.497958 1.045490
vt 0.237958 1.045490
vt 0.497958 1.305490
vt 0.237958 1.305490
vt 0.497958 1.045490
vt 0.237958 1.045490
vt 0.497958 1.305490
vt 0.237958 1.305490
vt 0.497958 1.045490
vt 0.237958 1.045490
vt 0.497958 1.305490
vt 0.237958 1.305490
vt 0.497958 1.045490
vt 0.237958 1.045490
vt 0.497958 1.305490
vt 0.237958 1.305490
vt 0.497958 1.045490
vt 0.237958 1.045490
vt 0.515312 0.960203
vt 0.255312 0.960203
vt 0.515312 0.700203
vt 0.255312 0.700203
vt 0.515312 0.960203
vt 0.255312 0.960203
vt 0.515312 0.700203
vt 0.255312 0.700203
vt 0.515312 0.960203
vt 0.255312 0.960203
vt 0.515312 0.700203
vt 0.255312 0.700203
vt 0.515312 0.960203
vt 0.255312 0.960203
vt 0.515312 0.700203
vt 0.255312 0.700203
vt 0.515312 0.960203
vt 0.255312 0.960203
vt 0.515312 0.700203
vt 0.255312 0.700203
vt 0.515312 0.960203
vt 0.255312 0.960203
vt 0.515312 0.700203
vt 0.255312 0.700203
vt 0.636062 1.084430
vt 0.376062 1.084430
vt 0.636062 0.824429
vt 0.376062 0.824429
vt 0.636062 1.084430
vt 0.376062 1.084430
vt 0.636062 0.824429
vt 0.376062 0.824429
vt 0.636062 1.084430
vt 0.376062 1.084430
vt 0.636062 0.824429
vt 0.376062 0.824429
vt 0.636062 1.084430
vt 0.376062 1.084430
vt 0.636062 0.824429
vt 0.376062 0.824429
vt 0.636062 1.084430
vt 0.376062 1.084430
vt 0.636062 0.824429
vt 0.376062 0.824429
vt 0.636062 1.084430
vt 0.376062 1.084430
vt 0.636062 0.824429
vt 0.376062 0.824429
vt -0.830216 -2.080980
vt -0.830216 -2.080980
vt -0.310216 -2.730980
vt -0.830216 -2.730980
vt 5.669780 -2.080980
vt -0.830216 -2.080980
vt 5.669780 -2.730980
vt -0.830216 -2.730980
vt -0.310216 -2.080980
vt -0.310216 -2.080980
vt -0.310216 -2.730980
vt -0.830216 -2.730980
vt 5.669780 -2.080980
vt -0.830216 -2.080980
vt 5.669780 -2.600980
vt -0.830216 -2.600980
vt 5.669780 -2.080980
vt -0.830216 -2.080980
vt 5.669780 -2.913380
vt -0.830216 -2.913380
vt 4.721840 -1.419240
vt 3.941840 -1.419240
vt 4.721840 -2.069240
vt 3.941840 -2.069240
vt 10.441800 -1.419240
vt 3.941840 -1.419240
vt 10.441800 -2.199240
vt 3.941840 -2.199240
vt 10.441800 -1.419240
vt 3.941840 -1.419240
vt 10.441800 -2.069240
vt 3.941840 -2.069240
vt 4.721840 -1.419240
vt 3.941840 -1.419240
vt 4.721840 -2.069240
vt 3.941840 -2.069240
vt 10.441800 -1.419240
vt 3.941840 -1.419240
vt 10.441800 -2.199240
vt 3.941840 -2.199240
vt 10.441800 -1.419240
vt 3.941840 -1.419240
vt 10.441800 -2.069240
vt 3.941840 -2.069240
vt 2.496130 -0.532619
vt 2.496130 -0.532619
vt 3.016130 -1.182620
vt 2.496130 -1.182620
vt 8.996130 -0.532619
vt 2.496130 -0.532619
vt 8.996130 -1.182620
vt 2.496130 -1.182620
vt 3.016130 -0.532619
vt 3.016130 -0.532619
vt 3.016130 -1.182620
vt 2.496130 -1.182620
vt 8.996130 -0.532619
vt 2.496130 -0.532619
vt 8.996130 -1.052620
vt 2.496130 -1.052620
vt 8.996130 -0.532619
vt 2.496130 -0.532619
vt 8.996130 -1.365030
vt 2.496130 -1.365030
vt 12.244200 -3.218160
vt 5.744190 -3.218160
vt 12.244200 -4.518160
vt 5.744190 -4.518160
vt 12.244200 -3.218160
vt 5.744190 -3.218160
vt 12.244200 -9.718160
vt 5.744190 -9.718160
vt 12.244200 -3.218160
vt 5.744190 -3.218160
vt 12.244200 -4.518160
vt 5.744190 -4.518160
vt 12.244200 -3.218160
vt 5.744190 -3.218160
vt 12.244200 -4.518160
vt 5.744190 -4.518160
vt 12.244200 -3.218160
vt 5.744190 -3.218160
vt 12.244200 -9.718160
vt 5.744190 -9.718160
vt 12.244200 -3.218160
vt 5.744190 -3.218160
vt 12.244200 -4.518160
vt 5.744190 -4.518160
vn 0.0000 0.0000 1.0000
vn 0.0000 1.0000 0.0000
vn -1.0000 0.0000 0.0000
vn 0.0000 0.0000 -1.0000
vn 0.0000 -1.0000 0.0000
vn 1.0000 0.0000 0.0000
vn 0.0000 0.0000 0.0000
vn -1.0000 0.0000 0.0001
vn 1.0000 0.0001 -0.0000
vn 0.0000 0.6237 0.7817
vn 0.0000 0.6237 0.7816
vn 1.0000 0.0000 -0.0005
vn -0.0000 0.6237 -0.7817
usemtl Part1Mtl
s 1
f 1/1/1 2/2/1 3/3/1
f 3/3/1 2/2/1 4/4/1
f 5/5/2 6/6/2 7/7/2
f 7/7/2 6/6/2 8/8/2
f 9/9/3 10/10/3 11/11/3
f 11/11/3 10/10/3 12/12/3
f 13/13/4 14/14/4 15/15/4
f 15/15/4 14/14/4 16/16/4
f 17/17/5 18/18/5 19/19/5
f 19/19/5 18/18/5 20/20/5
f 21/21/6 22/22/6 23/23/6
f 23/23/6 22/22/6 24/24/6
f 25/25/1 26/26/1 27/27/1
f 27/27/1 26/26/1 28/28/1
f 29/29/2 30/30/2 31/31/2
f 31/31/2 30/30/2 32/32/2
f 33/33/3 34/34/3 35/35/3
f 35/35/3 34/34/3 36/36/3
f 37/37/4 38/38/4 39/39/4
f 39/39/4 38/38/4 40/40/4
f 41/41/5 42/42/5 43/43/5
f 43/43/5 42/42/5 44/44/5
f 45/45/6 46/46/6 47/47/6
f 47/47/6 46/46/6 48/48/6
f 49/49/1 50/50/1 51/51/1
f 51/51/1 50/50/1 52/52/1
f 53/53/2 54/54/2 55/55/2
f 55/55/2 54/54/2 56/56/2
f 57/57/3 58/58/3 59/59/3
f 59/59/3 58/58/3 60/60/3
f 61/61/4 62/62/4 63/63/4
f 63/63/4 62/62/4 64/64/4
f 65/65/5 66/66/5 67/67/5
f 67/67/5 66/66/5 68/68/5
f 69/69/6 70/70/6 71/71/6
f 71/71/6 70/70/6 72/72/6
f 73/73/1 74/74/1 75/75/1
f 75/75/1 74/74/1 76/76/1
f 77/77/2 78/78/2 79/79/2
f 79/79/2 78/78/2 80/80/2
f 81/81/3 82/82/3 83/83/3
f 83/83/3 82/82/3 84/84/3
f 85/85/4 86/86/4 87/87/4
f 87/87/4 86/86/4 88/88/4
f 89/89/5 90/90/5 91/91/5
f 91/91/5 90/90/5 92/92/5
f 93/93/6 94/94/6 95/95/6
f 95/95/6 94/94/6 96/96/6
usemtl Wedge1Mtl
f 97/97/7 98/98/3 99/99/8
f 99/99/8 98/98/3 100/100/3
f 101/101/4 102/102/4 103/103/4
f 103/103/4 102/102/4 104/104/4
f 105/105/7 106/106/9 107/107/6
f 107/107/6 106/106/9 108/108/6
f 109/109/5 110/110/5 111/111/5
f 111/111/5 110/110/5 112/112/5
f 113/113/10 114/114/11 115/115/11
f 115/115/11 114/114/11 116/116/10
f 117/117/3 118/118/3 119/119/3
f 119/119/3 118/118/3 120/120/3
f 121/121/2 122/122/2 123/123/2
f 123/123/2 122/122/2 124/124/2
f 125/125/4 126/126/4 127/127/4
f 127/127/4 126/126/4 128/128/4
f 129/129/6 130/130/6 131/131/6
f 131/131/6 130/130/6 132/132/6
f 133/133/5 134/134/5 135/135/5
f 135/135/5 134/134/5 136/136/5
f 137/137/1 138/138/1 139/139/1
f 139/139/1 138/138/1 140/140/1
f 141/141/7 142/142/6 143/143/12
f 143/143/12 142/142/6 144/144/6
f 145/145/1 146/146/1 147/147/1
f 147/147/1 146/146/1 148/148/1
f 149/149/7 150/150/3 151/151/3
f 151/151/3 150/150/3 152/152/3
f 153/153/5 154/154/5 155/155/5
f 155/155/5 154/154/5 156/156/5
f 157/157/13 158/158/13 159/159/13
f 159/159/13 158/158/13 160/160/13
usemtl Part6Mtl
f 161/161/3 162/162/3 163/163/3
f 163/163/3 162/162/3 164/164/3
f 165/165/2 166/166/2 167/167/2
f 167/167/2 166/166/2 168/168/2
f 169/169/4 170/170/4 171/171/4
f 171/171/4 170/170/4 172/172/4
f 173/173/6 174/174/6 175/175/6
f 175/175/6 174/174/6 176/176/6
f 177/177/5 178/178/5 179/179/5
f 179/179/5 178/178/5 180/180/5
f 181/181/1 182/182/1 183/183/1
f 183/183/1 182/182/1 184/184/1
