# This file is brought to you by Roblox Corporation
# Generated by Roblox Studio

mtllib wire_h_straight.mtl

g Wedge1

v 0.300008 0.25 2.50001 
v 0.300008 0.25 2.50001 
v 0.700008 -0.25 2.50001 
v 0.300008 -0.25 2.50001 
v 0.300008 0.25 2.50001 
v 0.300008 0.25 -2.49999 
v 0.300008 -0.25 2.50001 
v 0.300008 -0.25 -2.49999 
v 0.300008 0.25 -2.49999 
v 0.300008 0.25 -2.49999 
v 0.300008 -0.25 -2.49999 
v 0.700008 -0.25 -2.49999 
v 0.700008 -0.25 -2.49999 
v 0.700008 -0.25 2.50001 
v 0.300008 -0.25 -2.49999 
v 0.300008 -0.25 2.50001 
v 0.300008 0.25 -2.49999 
v 0.300008 0.25 2.50001 
v 0.700008 -0.25 -2.49999 
v 0.700008 -0.25 2.50001 

vn 0 0 1 
vn 0 0 1 
vn 0 0 1 
vn 0 0 1 
vn -1 0 0 
vn -1 0 0 
vn -1 0 0 
vn -1 0 0 
vn 0 0 -1 
vn 0 0 -1 
vn 0 0 -1 
vn 0 0 -1 
vn 0 -1 0 
vn 0 -1 0 
vn 0 -1 0 
vn 0 -1 0 
vn 0.779528 0.622047 0 
vn 0.779528 0.622047 0 
vn 0.779528 0.622047 0 
vn 0.779528 0.622047 0 

vt 3.43497 -0.578647 
vt 3.43497 -0.578647 
vt 3.95497 -1.22865 
vt 3.43497 -1.22865 
vt 9.93497 -0.578647 
vt 3.43497 -0.578647 
vt 9.93497 -1.22865 
vt 3.43497 -1.22865 
vt 3.95497 -0.578647 
vt 3.95497 -0.578647 
vt 3.95497 -1.22865 
vt 3.43497 -1.22865 
vt 9.93497 -0.578647 
vt 3.43497 -0.578647 
vt 9.93497 -1.09865 
vt 3.43497 -1.09865 
vt 9.93497 -0.578647 
vt 3.43497 -0.578647 
vt 9.93497 -1.41105 
vt 3.43497 -1.41105 

usemtl Wedge1Mtl

f 1/1/1 2/2/2 3/3/3 
f 3/3/3 2/2/2 4/4/4 
f 5/5/5 6/6/6 7/7/7 
f 7/7/7 6/6/6 8/8/8 
f 9/9/9 10/10/10 11/11/11 
f 11/11/11 10/10/10 12/12/12 
f 13/13/13 14/14/14 15/15/15 
f 15/15/15 14/14/14 16/16/16 
f 17/17/17 18/18/18 19/19/19 
f 19/19/19 18/18/18 20/20/20 

g Part1

v -0.3 0.25 -2.50001 
v 0.3 0.25 -2.50001 
v -0.3 -0.25 -2.50001 
v 0.3 -0.25 -2.50001 
v 0.3 0.25 2.49999 
v 0.3 0.25 -2.50001 
v -0.3 0.25 2.49999 
v -0.3 0.25 -2.50001 
v 0.3 0.25 -2.50001 
v 0.3 0.25 2.49999 
v 0.3 -0.25 -2.50001 
v 0.3 -0.25 2.49999 
v 0.3 0.25 2.49999 
v -0.3 0.25 2.49999 
v 0.3 -0.25 2.49999 
v -0.3 -0.25 2.49999 
v -0.3 -0.25 2.49999 
v -0.3 -0.25 -2.50001 
v 0.3 -0.25 2.49999 
v 0.3 -0.25 -2.50001 
v -0.3 0.25 2.49999 
v -0.3 0.25 -2.50001 
v -0.3 -0.25 2.49999 
v -0.3 -0.25 -2.50001 

vn 0 0 -1 
vn 0 0 -1 
vn 0 0 -1 
vn 0 0 -1 
vn 0 1 0 
vn 0 1 0 
vn 0 1 0 
vn 0 1 0 
vn 1 0 0 
vn 1 0 0 
vn 1 0 0 
vn 1 0 0 
vn 0 0 1 
vn 0 0 1 
vn 0 0 1 
vn 0 0 1 
vn 0 -1 0 
vn 0 -1 0 
vn 0 -1 0 
vn 0 -1 0 
vn -1 0 0 
vn -1 0 0 
vn -1 0 0 
vn -1 0 0 

vt -1.35735 -2.55141 
vt -2.13735 -2.55141 
vt -1.35735 -3.20141 
vt -2.13735 -3.20141 
vt 4.36265 -2.55141 
vt -2.13735 -2.55141 
vt 4.36265 -3.33141 
vt -2.13735 -3.33141 
vt 4.36265 -2.55141 
vt -2.13735 -2.55141 
vt 4.36265 -3.20141 
vt -2.13735 -3.20141 
vt -1.35735 -2.55141 
vt -2.13735 -2.55141 
vt -1.35735 -3.20141 
vt -2.13735 -3.20141 
vt 4.36265 -2.55141 
vt -2.13735 -2.55141 
vt 4.36265 -3.33141 
vt -2.13735 -3.33141 
vt 4.36265 -2.55141 
vt -2.13735 -2.55141 
vt 4.36265 -3.20141 
vt -2.13735 -3.20141 

usemtl Wedge1Mtl

f 21/21/21 22/22/22 23/23/23 
f 23/23/23 22/22/22 24/24/24 
f 25/25/25 26/26/26 27/27/27 
f 27/27/27 26/26/26 28/28/28 
f 29/29/29 30/30/30 31/31/31 
f 31/31/31 30/30/30 32/32/32 
f 33/33/33 34/34/34 35/35/35 
f 35/35/35 34/34/34 36/36/36 
f 37/37/37 38/38/38 39/39/39 
f 39/39/39 38/38/38 40/40/40 
f 41/41/41 42/42/42 43/43/43 
f 43/43/43 42/42/42 44/44/44 

g Wedge2

v -0.300004 0.25 -2.49999 
v -0.300004 0.25 -2.49999 
v -0.700004 -0.25 -2.49999 
v -0.300004 -0.25 -2.49999 
v -0.300004 0.25 -2.49999 
v -0.300004 0.25 2.50001 
v -0.300004 -0.25 -2.49999 
v -0.300004 -0.25 2.50001 
v -0.300004 0.25 2.50001 
v -0.300004 0.25 2.50001 
v -0.300004 -0.25 2.50001 
v -0.700004 -0.25 2.50001 
v -0.700004 -0.25 2.50001 
v -0.700004 -0.25 -2.49999 
v -0.300004 -0.25 2.50001 
v -0.300004 -0.25 -2.49999 
v -0.300004 0.25 2.50001 
v -0.300004 0.25 -2.49999 
v -0.700004 -0.25 2.50001 
v -0.700004 -0.25 -2.49999 

vn 0 0 -1 
vn 0 0 -1 
vn 0 0 -1 
vn 0 0 -1 
vn 1 0 0 
vn 1 0 0 
vn 1 0 0 
vn 1 0 0 
vn 0 0 1 
vn 0 0 1 
vn 0 0 1 
vn 0 0 1 
vn 0 -1 0 
vn 0 -1 0 
vn 0 -1 0 
vn 0 -1 0 
vn -0.779528 0.622047 0 
vn -0.779528 0.622047 0 
vn -0.779528 0.622047 0 
vn -0.779528 0.622047 0 

vt 1.53262 3.19737 
vt 1.53262 3.19737 
vt 2.05262 2.54737 
vt 1.53262 2.54737 
vt 8.03262 3.19737 
vt 1.53262 3.19737 
vt 8.03262 2.54737 
vt 1.53262 2.54737 
vt 2.05262 3.19737 
vt 2.05262 3.19737 
vt 2.05262 2.54737 
vt 1.53262 2.54737 
vt 8.03262 3.19737 
vt 1.53262 3.19737 
vt 8.03262 2.67737 
vt 1.53262 2.67737 
vt 8.03262 3.19737 
vt 1.53262 3.19737 
vt 8.03262 2.36496 
vt 1.53262 2.36496 

usemtl Wedge1Mtl

f 45/45/45 46/46/46 47/47/47 
f 47/47/47 46/46/46 48/48/48 
f 49/49/49 50/50/50 51/51/51 
f 51/51/51 50/50/50 52/52/52 
f 53/53/53 54/54/54 55/55/55 
f 55/55/55 54/54/54 56/56/56 
f 57/57/57 58/58/58 59/59/59 
f 59/59/59 58/58/58 60/60/60 
f 61/61/61 62/62/62 63/63/63 
f 63/63/63 62/62/62 64/64/64 

